<svg width="611" height="661" viewBox="0 0 611 661" fill="none" xmlns="http://www.w3.org/2000/svg">
<path fill-rule="evenodd" clip-rule="evenodd" d="M151.873 0.669302L148.554 0L145.856 2.04756L3.77965 109.898L0 112.767L0.974086 117.412L39.1783 299.561L40.6234 306.451L47.591 305.444L207.72 282.31L301.002 654.843L302.537 660.971L308.836 660.5L388.752 654.529L392.961 654.215L394.876 650.455L605.997 236.051L610.265 227.674L601.149 225.375L512.673 203.057L430.306 59.4145L428.615 56.4652L425.282 55.7932L151.873 0.669302ZM492.458 197.958L418.985 69.8254L152.228 16.0427L16.6287 118.977L52.4137 289.592L204.057 267.684L196.039 235.662L194.938 231.265L198.319 228.246L286.584 149.427L289.553 146.775L293.413 147.749L492.458 197.958ZM218.98 265.528L211.691 236.415L293.605 163.267L502.829 216.044L507.317 223.871L218.98 265.528ZM222.643 280.154L520.387 237.138L531.311 235.56L525.821 225.985L523.044 221.143L588.364 237.619L383.426 639.885L314.018 645.072L222.643 280.154Z" fill="#FCFCFC"/>
</svg>
